<?xml version="1.0" encoding="UTF-8" standalone="no"?>
<svg xmlns="http://www.w3.org/2000/svg" fill="none" height="136" viewBox="0 0 136 136" width="136">
<path d="M50.5 69.9774C50.5 73.5799 47.5983 76.5 44.0186 76.5H12.0686V76.4683C9.79777 76.3413 8 74.4686 8 72.1516C8 69.7552 9.9397 67.8032 12.321 67.8032C12.8571 67.8032 13.346 67.9143 13.8191 68.0889C14.6234 65.4227 17.0677 63.4548 19.9852 63.4548C20.4109 63.4548 20.821 63.5024 21.2152 63.5818C22.3506 58.8049 26.6085 55.25 31.7022 55.25C36.859 55.25 41.1484 58.8842 42.2365 63.7405C42.8043 63.5818 43.4035 63.4548 44.0186 63.4548C47.5983 63.4548 50.5 66.3749 50.5 69.9774Z" fill="#E9E9E9"/>
<path d="M128 79.1111C128 82.5017 125.269 85.25 121.9 85.25H91.8293V85.2201C89.692 85.1006 88 83.3381 88 81.1574C88 78.902 89.8256 77.0648 92.0668 77.0648C92.5714 77.0648 93.0315 77.1693 93.4768 77.3336C94.2338 74.8243 96.5343 72.9722 99.2802 72.9722C99.6809 72.9722 100.067 73.017 100.438 73.0917C101.506 68.5958 105.514 65.25 110.308 65.25C115.161 65.25 119.199 68.6705 120.223 73.241C120.757 73.0917 121.321 72.9722 121.9 72.9722C125.284 72.9722 128 75.7205 128 79.1111Z" fill="#E9E9E9"/>
<path d="M104.184 49.6678L99.029 54.8232L65.0603 88.7918L61.0349 92.8172C57.3979 96.4542 52.172 98.8023 45.5159 99.8086C44.7391 99.9322 43.9623 100.038 43.2384 100.126C42.6381 100.179 42.0379 99.9676 41.6141 99.5438L41.261 99.1907C40.8373 98.767 40.6254 98.1667 40.6784 97.5664C40.749 96.8426 40.855 96.0658 40.9962 95.2889C42.0202 88.6329 44.3507 83.407 47.9877 79.77L52.0131 75.7446L85.9817 41.776L91.1371 36.6206C94.7741 32.9837 100 30.6355 106.656 29.6292C107.433 29.5056 108.015 29.435 108.757 29.3643C108.775 29.3643 108.792 29.3643 108.828 29.3643C109.516 29.3114 110.222 29.5232 110.734 30.0529C110.734 30.0529 110.734 30.0705 110.752 30.0705C110.752 30.0705 110.77 30.0705 110.77 30.0882C111.299 30.6179 111.511 31.3241 111.458 31.995C111.458 32.0126 111.458 32.0303 111.458 32.0656C111.388 32.7894 111.335 33.3721 111.193 34.1666C110.169 40.8049 107.821 46.0309 104.184 49.6678Z" fill="#8AB0C7"/>
<path d="M94.0149 85.9843L91.2607 75.7796C91.5609 75.4795 91.914 75.144 92.4966 74.7203C93.3087 74.12 94.6152 74.2613 95.3921 75.0558L97.1399 76.8036L98.8878 78.5515C99.6823 79.346 99.8235 80.6348 99.2232 81.447C98.623 82.2591 98.1992 82.6475 97.8285 83.0183C96.6632 84.1835 95.3744 85.1722 94.0149 85.9843ZM66.0844 48.3081C66.6846 47.496 66.5434 46.1895 65.7489 45.4127L64.001 43.6648L62.2532 41.9169C61.4587 41.1224 60.1699 40.9812 59.3577 41.5815C58.5456 42.1817 58.1572 42.6055 57.7864 42.9762C56.6211 44.1415 55.6325 45.4303 54.8203 46.7898L65.025 49.544C65.3252 49.2438 65.6606 48.8731 66.0844 48.3081Z" fill="#013D5B"/>
<path d="M77.2778 76.5745L88.4712 65.3811L100.689 110.773C100.795 111.143 100.689 111.532 100.406 111.797L95.9217 116.281L97.3695 114.833L77.2778 76.5745ZM75.4063 52.3339L30.0147 40.1165C29.644 40.0105 29.2556 40.1165 28.9907 40.3989L25.9717 43.418L64.2129 63.5449L75.4063 52.3339Z" fill="#255F82"/>
<path d="M54.0611 97.4253L58.8633 115.257C58.9692 115.628 58.8633 116.016 58.5808 116.281L54.8909 119.971C54.3965 120.465 53.5667 120.359 53.2313 119.742L41.9849 100.515L35.8056 106.694C35.5761 106.924 35.2583 107.047 34.9581 107.047C34.658 107.047 34.3402 106.924 34.1107 106.694C33.634 106.218 33.634 105.458 34.1107 104.982L40.29 98.8025L21.0811 87.5384C20.4808 87.1853 20.3749 86.3732 20.8516 85.8788L26.0422 80.6882C26.3071 80.4234 26.6955 80.3174 27.0662 80.4057L43.6268 86.1437C42.4086 88.7919 41.5259 91.8286 40.9962 95.2538C40.8726 96.0306 40.7667 96.8074 40.6784 97.5313C40.6431 97.7961 40.6784 98.0609 40.7667 98.3081L53.0018 86.0554C53.4785 85.5787 54.2376 85.5787 54.7143 86.0554C55.191 86.5321 55.191 87.2912 54.7143 87.7679L42.4616 100.021C42.7088 100.091 42.9736 100.127 43.2384 100.109C43.9623 100.038 44.7391 99.9324 45.516 99.7911C48.7116 99.3145 51.5541 98.52 54.0611 97.4253ZM24.5239 44.8481C24.0295 45.3425 24.1355 46.1723 24.7534 46.5077L60.6288 67.1113L64.2129 63.5273L25.9716 43.4004L24.5239 44.8481ZM95.6921 34.6257C95.6215 34.6787 95.5862 34.7493 95.5686 34.8376C95.5686 34.9259 95.5862 34.9965 95.6568 35.0671L96.363 35.7733C96.4337 35.844 96.5219 35.8616 96.6279 35.844C98.7112 35.3673 100.847 35.8616 102.489 37.1681L104.732 34.9259C102.154 32.8249 98.464 32.6484 95.6921 34.6257ZM73.6937 80.1585L94.2797 116.052C94.368 116.21 94.4916 116.316 94.6152 116.405C94.7564 116.493 94.8977 116.546 95.0566 116.564C95.2155 116.581 95.3744 116.564 95.5332 116.528C95.6921 116.475 95.8334 116.387 95.957 116.263L97.4047 114.816L77.2777 76.5745L73.6937 80.1585ZM105.879 36.0558L103.637 38.298C104.926 39.94 105.42 42.0762 104.961 44.1596C104.943 44.2478 104.961 44.3538 105.032 44.4244L105.738 45.1306C105.791 45.1836 105.862 45.2189 105.932 45.2189H105.95C106.038 45.2189 106.109 45.1659 106.162 45.0953C108.139 42.3234 107.98 38.6511 105.879 36.0558Z" fill="#013D5B"/>
<path d="M30.5093 126.839C30.1033 126.839 29.6795 126.68 29.3618 126.362C28.7262 125.727 28.7262 124.721 29.3618 124.085L39.8137 113.633C40.4492 112.997 41.4556 112.997 42.0912 113.633C42.7268 114.269 42.7268 115.275 42.0912 115.911L31.6393 126.362C31.3215 126.68 30.9154 126.839 30.5093 126.839ZM16.7029 112.591L27.9493 101.345C28.5849 100.709 28.5849 99.7031 27.9493 99.0675C27.3137 98.4319 26.3074 98.4319 25.6718 99.0675L14.4254 110.314C13.7898 110.949 13.7898 111.956 14.4254 112.591C14.7432 112.909 15.1493 113.068 15.573 113.068C15.9791 113.05 16.3852 112.892 16.7029 112.591ZM16.7029 126.38L30.4917 112.591C31.1273 111.956 31.1273 110.949 30.4917 110.314C29.8561 109.678 28.8498 109.678 28.2142 110.314L14.4254 124.103C13.7898 124.738 13.7898 125.745 14.4254 126.38C14.7432 126.698 15.1493 126.857 15.573 126.857C15.9791 126.839 16.3852 126.68 16.7029 126.38Z" fill="#F9C606"/>
</svg>
