<?xml version="1.0" encoding="UTF-8" standalone="no"?>
<svg xmlns="http://www.w3.org/2000/svg" fill="none" height="136" viewBox="0 0 136 136" width="136">
<g clip-path="url(#clip0_2258_15541)">
<path clip-rule="evenodd" d="M88.0119 28.7518C88.0896 28.5799 88.1209 28.4104 88.1034 28.2438C87.8378 25.716 76.4345 24.842 62.6334 26.2917C48.8322 27.7414 37.8594 30.9658 38.1249 33.4936C38.1426 33.6622 38.2098 33.8233 38.324 33.977C38.2508 34.2691 38.2267 34.5786 38.2599 34.8953L39.2286 44.1168C39.2286 44.1168 38.5547 45.9346 36.9399 47.1939C32.9863 50.3941 30.6837 55.4792 31.2516 60.8855L37.5828 121.159C38.1758 126.805 43.2786 130.922 48.9244 130.329L97.7178 125.203C103.364 124.61 107.498 119.506 106.906 113.877L106.923 113.875L100.592 53.6019C100.003 47.9903 96.4382 43.3658 91.6376 41.1371C90.1494 40.3074 89.522 39.4393 89.2367 38.8638L88.268 29.6423C88.2346 29.3235 88.1457 29.0238 88.0119 28.7518Z" fill="#598AAA" fill-rule="evenodd"/>
<path d="M36.7278 61.737C36.5757 56.3273 38.9116 52.2386 40.2748 50.6805C40.339 50.6072 40.4416 50.5838 40.5334 50.6165C43.3226 51.6123 46.2884 52.1437 49.2499 52.1682C49.5281 52.1705 49.5903 52.5969 49.3279 52.6893C43.0224 54.9094 39.0535 58.9297 37.3616 61.8692C37.1991 62.1515 36.7369 62.0626 36.7278 61.737Z" fill="#8AB0C7"/>
<ellipse cx="58.3601" cy="118.563" fill="#F1BA0D" rx="13.5541" ry="4.81676" transform="rotate(-16.7328 58.3601 118.563)"/>
<rect fill="#F1BA0D" height="1.95108" transform="rotate(-16.7328 44.8237 120.604)" width="27.1082" x="44.8237" y="120.604"/>
<ellipse cx="57.8006" cy="116.701" fill="#FBD44D" rx="13.5541" ry="4.81676" transform="rotate(-16.7328 57.8006 116.701)"/>
<path d="M53.4026 115.897C53.9034 115.564 54.5782 115.231 55.4206 114.904C55.6131 114.829 55.7169 114.618 55.6542 114.421C55.5896 114.218 55.7019 114.001 55.9052 113.936L57.2262 113.516C57.4312 113.451 57.6502 113.564 57.7154 113.769C57.7784 113.967 57.9859 114.08 58.1874 114.03C58.8085 113.873 59.4134 113.743 60.0017 113.64C60.2644 113.593 60.5171 113.553 60.7595 113.52C61.1911 113.461 61.4419 113.953 61.1616 114.286C61.071 114.394 60.9392 114.458 60.7987 114.466C60.2542 114.498 59.6419 114.576 58.9573 114.698C58.1792 114.839 57.4966 115.003 56.9202 115.186C56.4985 115.32 56.1697 115.45 55.9455 115.577C55.7208 115.702 55.621 115.813 55.6508 115.907C55.6753 115.984 55.7868 116.02 55.9848 116.015C56.1828 116.009 56.4256 115.978 56.7074 115.921C56.9891 115.865 57.3851 115.779 57.8948 115.663C58.6575 115.493 59.2974 115.361 59.8043 115.273C60.3113 115.186 60.7596 115.154 61.1491 115.178C61.5387 115.201 61.7664 115.326 61.8378 115.55C61.9246 115.823 61.7083 116.141 61.1942 116.502C60.7391 116.821 60.0967 117.145 59.2698 117.471C59.0854 117.543 58.9863 117.746 59.0464 117.935C59.1086 118.13 59.0004 118.339 58.8049 118.401L57.446 118.834C57.2543 118.895 57.0494 118.789 56.9884 118.597C56.929 118.41 56.7328 118.304 56.5434 118.354C56.0329 118.489 55.5284 118.609 55.0264 118.711C54.8498 118.747 54.6778 118.78 54.5105 118.81C54.092 118.885 53.8259 118.411 54.0919 118.079C54.1696 117.982 54.282 117.919 54.4051 117.903C54.9588 117.828 55.5411 117.727 56.1487 117.602C56.827 117.461 57.3874 117.32 57.8304 117.179C58.1827 117.067 58.4538 116.959 58.6385 116.856C58.8285 116.751 58.9108 116.658 58.8863 116.581C58.8623 116.506 58.7572 116.471 58.5651 116.477C58.373 116.483 58.1414 116.512 57.8751 116.562C57.6093 116.613 57.2122 116.695 56.6898 116.808C55.9154 116.979 55.2696 117.11 54.7567 117.198C54.2439 117.286 53.7892 117.316 53.3922 117.287C52.9952 117.259 52.7605 117.13 52.6881 116.903C52.6013 116.611 52.8357 116.277 53.4026 115.897Z" fill="#F1BA0D"/>
<ellipse cx="90.1764" cy="111.125" fill="#F1BA0D" rx="13.5541" ry="4.81676" transform="rotate(0.917542 90.1764 111.125)"/>
<rect fill="#F1BA0D" height="1.95108" transform="rotate(0.917545 76.6587 108.965)" width="27.1082" x="76.6587" y="108.965"/>
<ellipse cx="90.2086" cy="109.181" fill="#FBD44D" rx="13.5541" ry="4.81676" transform="rotate(0.917541 90.2086 109.181)"/>
<path d="M86.261 107.081C86.8393 106.915 87.5832 106.803 88.4852 106.746C88.6914 106.733 88.8542 106.564 88.8542 106.357C88.8542 106.144 89.0271 105.971 89.2404 105.971L90.6267 105.971C90.8418 105.971 91.0161 106.145 91.0161 106.36C91.0161 106.568 91.1794 106.739 91.3869 106.752C92.0262 106.791 92.6419 106.851 93.234 106.93C93.4985 106.966 93.7513 107.004 93.9923 107.047C94.4214 107.121 94.5114 107.666 94.1432 107.898C94.0242 107.974 93.8792 107.994 93.7428 107.96C93.2142 107.825 92.6071 107.714 91.9177 107.623C91.1336 107.521 90.4335 107.47 89.8287 107.47C89.3862 107.47 89.0334 107.494 88.7813 107.547C88.5293 107.598 88.4005 107.673 88.4004 107.772C88.4004 107.853 88.4956 107.921 88.6861 107.976C88.8765 108.03 89.1173 108.074 89.403 108.106C89.6886 108.137 90.0918 108.176 90.6127 108.22C91.3912 108.289 92.0409 108.357 92.5505 108.427C93.0602 108.498 93.4971 108.603 93.8611 108.744C94.2251 108.884 94.4043 109.072 94.4043 109.308C94.4043 109.594 94.1018 109.832 93.5025 110.019C92.972 110.186 92.2615 110.3 91.375 110.359C91.1772 110.372 91.0214 110.535 91.0213 110.734C91.0213 110.939 90.8549 111.105 90.6497 111.105L89.2238 111.105C89.0225 111.105 88.8594 110.942 88.8595 110.741C88.8595 110.545 88.7046 110.384 88.509 110.375C87.9815 110.349 87.4646 110.309 86.9552 110.254C86.7761 110.235 86.6023 110.214 86.4337 110.192C86.0121 110.137 85.9023 109.604 86.2564 109.369C86.3598 109.3 86.4859 109.275 86.6082 109.296C87.1584 109.393 87.744 109.473 88.3611 109.538C89.05 109.61 89.6269 109.645 90.0917 109.645C90.4614 109.645 90.7526 109.624 90.9598 109.582C91.1727 109.54 91.2791 109.476 91.2791 109.396C91.2791 109.316 91.1895 109.251 91.0047 109.199C90.8199 109.146 90.5902 109.104 90.3214 109.07C90.0526 109.039 89.6493 108.997 89.1172 108.946C88.3275 108.873 87.6723 108.803 87.157 108.731C86.6417 108.659 86.1993 108.55 85.8297 108.402C85.46 108.255 85.2752 108.061 85.2752 107.822C85.2809 107.518 85.6057 107.271 86.261 107.081Z" fill="#F1BA0D"/>
<ellipse cx="77.6192" cy="116.395" fill="#F1BA0D" rx="13.5541" ry="4.81676" transform="rotate(2.76715 77.6192 116.395)"/>
<rect fill="#F1BA0D" height="1.95108" transform="rotate(2.76716 64.1782 113.799)" width="27.1082" x="64.1782" y="113.799"/>
<ellipse cx="77.7139" cy="114.452" fill="#FEDC7D" rx="13.5541" ry="4.81676" transform="rotate(2.76715 77.7139 114.452)"/>
<path d="M73.836 112.226C74.4193 112.079 75.1665 111.991 76.0698 111.963C76.2763 111.957 76.4445 111.793 76.4512 111.586C76.4581 111.373 76.6365 111.206 76.8496 111.213L78.2352 111.258C78.4501 111.265 78.6188 111.444 78.6118 111.659C78.6051 111.867 78.7628 112.043 78.9698 112.063C79.6075 112.122 80.221 112.202 80.8101 112.301C81.0733 112.345 81.3248 112.391 81.5643 112.441C81.9908 112.53 82.0631 113.077 81.6876 113.298C81.5663 113.369 81.4207 113.385 81.2855 113.346C80.7615 113.195 80.1583 113.064 79.4722 112.95C78.6918 112.823 77.9938 112.749 77.3892 112.73C76.947 112.715 76.5935 112.729 76.3399 112.773C76.0864 112.816 75.9552 112.887 75.952 112.986C75.9494 113.066 76.0423 113.138 76.2309 113.199C76.4194 113.259 76.6587 113.311 76.9432 113.352C77.2276 113.393 77.6294 113.444 78.1486 113.505C78.9245 113.599 79.5716 113.688 80.0787 113.775C80.5859 113.862 81.0191 113.981 81.3784 114.133C81.7377 114.286 81.9108 114.479 81.9031 114.715C81.8939 115.001 81.5839 115.228 80.9789 115.397C80.4432 115.546 79.7295 115.637 78.8415 115.668C78.6433 115.675 78.4823 115.832 78.4759 116.03C78.4693 116.236 78.2976 116.396 78.0925 116.39L76.6673 116.344C76.4662 116.337 76.3084 116.169 76.3149 115.968C76.3213 115.772 76.1717 115.607 75.9765 115.591C75.4501 115.548 74.9347 115.491 74.4274 115.42C74.249 115.395 74.0759 115.369 73.9081 115.341C73.4885 115.272 73.3959 114.737 73.7575 114.513C73.8631 114.447 73.9899 114.426 74.1115 114.451C74.6582 114.566 75.241 114.665 75.8556 114.749C76.5418 114.844 77.1173 114.897 77.5819 114.912C77.9514 114.924 78.2431 114.913 78.4516 114.877C78.6657 114.842 78.7741 114.782 78.7767 114.701C78.7793 114.622 78.6918 114.555 78.5088 114.496C78.3258 114.437 78.0976 114.388 77.83 114.346C77.5623 114.305 77.1607 114.25 76.6305 114.182C75.8436 114.084 75.1909 113.993 74.6782 113.904C74.1655 113.816 73.7268 113.692 73.3622 113.533C72.9975 113.373 72.819 113.174 72.8267 112.935C72.8422 112.632 73.1749 112.395 73.836 112.226Z" fill="#F1BA0D"/>
<ellipse cx="68.0328" cy="109.899" fill="#F1BA0D" rx="13.5541" ry="4.81676" transform="rotate(-4.23285 68.0328 109.899)"/>
<rect fill="#F1BA0D" height="1.95108" transform="rotate(-4.23284 54.3755 108.96)" width="27.1082" x="54.3755" y="108.96"/>
<ellipse cx="67.8897" cy="107.959" fill="#FEDC7D" rx="13.5541" ry="4.81676" transform="rotate(-4.23285 67.8897 107.959)"/>
<path d="M63.7699 106.222C64.331 106.005 65.0618 105.826 65.9551 105.689C66.1593 105.657 66.3062 105.474 66.2877 105.268C66.2686 105.056 66.4252 104.868 66.6376 104.849L68.0183 104.725C68.2325 104.705 68.4219 104.863 68.4412 105.078C68.4598 105.285 68.6378 105.44 68.8456 105.434C69.4858 105.416 70.1044 105.42 70.7012 105.446C70.9678 105.458 71.2231 105.474 71.4669 105.494C71.901 105.53 72.0395 106.064 71.6936 106.329C71.5819 106.414 71.4394 106.448 71.3004 106.426C70.7619 106.339 70.1472 106.283 69.4524 106.254C68.6624 106.223 67.9605 106.235 67.3581 106.289C66.9174 106.329 66.5682 106.385 66.3219 106.46C66.0754 106.533 65.9539 106.62 65.9627 106.718C65.97 106.799 66.071 106.858 66.2655 106.895C66.46 106.933 66.7038 106.955 66.9912 106.961C67.2785 106.967 67.6836 106.969 68.2063 106.966C68.9878 106.964 69.641 106.974 70.1549 106.999C70.6689 107.023 71.1134 107.089 71.4886 107.196C71.8638 107.303 72.0592 107.475 72.0803 107.709C72.106 107.994 71.826 108.258 71.246 108.499C70.7326 108.712 70.0352 108.889 69.1576 109.028C68.9617 109.059 68.8212 109.235 68.8389 109.433C68.8573 109.637 68.7066 109.818 68.5022 109.836L67.082 109.964C66.8816 109.982 66.7045 109.834 66.6864 109.634C66.6689 109.439 66.5002 109.293 66.3045 109.301C65.7768 109.322 65.2585 109.329 64.7462 109.32C64.5661 109.317 64.3911 109.312 64.2212 109.305C63.7963 109.288 63.6392 108.767 63.9707 108.501C64.0675 108.423 64.1908 108.387 64.3146 108.397C64.8712 108.444 65.4617 108.471 66.0821 108.48C66.7746 108.49 67.3523 108.474 67.8153 108.432C68.1835 108.399 68.4717 108.352 68.6743 108.291C68.8825 108.23 68.9828 108.157 68.9755 108.077C68.9684 107.998 68.8734 107.941 68.6846 107.905C68.4957 107.87 68.2633 107.848 67.9925 107.839C67.7219 107.832 67.3165 107.826 66.782 107.823C65.989 107.822 65.3301 107.811 64.8104 107.785C64.2908 107.76 63.8403 107.691 63.4589 107.577C63.0775 107.463 62.8761 107.287 62.8547 107.049C62.833 106.746 63.1343 106.47 63.7699 106.222Z" fill="#F1BA0D"/>
<ellipse cx="89.3601" cy="103.563" fill="#F1BA0D" rx="13.5541" ry="4.81676" transform="rotate(-16.7328 89.3601 103.563)"/>
<rect fill="#F1BA0D" height="1.95108" transform="rotate(-16.7328 75.8237 105.604)" width="27.1082" x="75.8237" y="105.604"/>
<ellipse cx="88.8006" cy="101.701" fill="#FBD44D" rx="13.5541" ry="4.81676" transform="rotate(-16.7328 88.8006 101.701)"/>
<path d="M84.4026 100.897C84.9034 100.564 85.5782 100.231 86.4206 99.9037C86.6131 99.8288 86.7169 99.6179 86.6542 99.421C86.5896 99.2178 86.7019 99.0007 86.9052 98.936L88.2262 98.5158C88.4312 98.4506 88.6502 98.5639 88.7154 98.7689C88.7784 98.967 88.9859 99.0804 89.1874 99.0296C89.8085 98.8729 90.4134 98.7433 91.0017 98.6397C91.2644 98.5931 91.5171 98.5533 91.7595 98.5203C92.1911 98.4615 92.4419 98.953 92.1616 99.2863C92.071 99.394 91.9392 99.4578 91.7987 99.4662C91.2542 99.4985 90.6419 99.5762 89.9573 99.6984C89.1792 99.8389 88.4966 100.003 87.9202 100.186C87.4985 100.32 87.1697 100.45 86.9455 100.577C86.7208 100.702 86.621 100.813 86.6508 100.907C86.6753 100.984 86.7868 101.02 86.9848 101.015C87.1828 101.009 87.4256 100.978 87.7074 100.921C87.9891 100.865 88.3851 100.779 88.8948 100.663C89.6575 100.493 90.2974 100.361 90.8043 100.273C91.3113 100.186 91.7596 100.154 92.1491 100.178C92.5387 100.201 92.7664 100.326 92.8378 100.55C92.9246 100.823 92.7083 101.141 92.1942 101.502C91.7391 101.821 91.0967 102.145 90.2698 102.471C90.0854 102.543 89.9863 102.746 90.0464 102.935C90.1086 103.13 90.0004 103.339 89.8049 103.401L88.446 103.834C88.2543 103.895 88.0494 103.789 87.9884 103.597C87.929 103.41 87.7328 103.304 87.5434 103.354C87.0329 103.489 86.5284 103.609 86.0264 103.711C85.8498 103.747 85.6778 103.78 85.5105 103.81C85.092 103.885 84.8259 103.411 85.0919 103.079C85.1696 102.982 85.282 102.919 85.4051 102.903C85.9588 102.828 86.5411 102.727 87.1487 102.602C87.827 102.461 88.3874 102.32 88.8304 102.179C89.1827 102.067 89.4538 101.959 89.6385 101.856C89.8285 101.751 89.9108 101.658 89.8863 101.581C89.8623 101.506 89.7572 101.471 89.5651 101.477C89.373 101.483 89.1414 101.512 88.8751 101.562C88.6093 101.613 88.2122 101.695 87.6898 101.808C86.9154 101.979 86.2696 102.11 85.7567 102.198C85.2439 102.286 84.7892 102.316 84.3922 102.287C83.9952 102.259 83.7605 102.13 83.6881 101.903C83.6013 101.611 83.8357 101.277 84.4026 100.897Z" fill="#F1BA0D"/>
<ellipse cx="53.9944" cy="109.88" fill="#F1BA0D" rx="13.5541" ry="4.81676" transform="rotate(-35.9249 53.9944 109.88)"/>
<rect fill="#F1BA0D" height="1.95108" transform="rotate(-35.9249 41.8809 116.255)" width="27.1082" x="41.8809" y="116.255"/>
<ellipse cx="52.8538" cy="108.304" fill="#FEDC7D" rx="13.5541" ry="4.81676" transform="rotate(-35.9249 52.8538 108.304)"/>
<path d="M48.4359 108.99C48.7992 108.511 49.3272 107.975 50.015 107.389C50.1723 107.255 50.2009 107.021 50.077 106.856C49.9492 106.685 49.9839 106.443 50.1546 106.315L51.264 105.484C51.4362 105.355 51.6803 105.39 51.8093 105.563C51.9339 105.729 52.1671 105.768 52.3408 105.654C52.8758 105.301 53.4045 104.98 53.926 104.689C54.1589 104.559 54.3844 104.438 54.6025 104.327C54.9907 104.13 55.3892 104.511 55.234 104.918C55.1839 105.05 55.0803 105.153 54.9504 105.207C54.4468 105.417 53.8941 105.692 53.2877 106.032C52.599 106.421 52.0082 106.8 51.5241 107.162C51.17 107.428 50.9023 107.659 50.7322 107.852C50.561 108.044 50.5032 108.182 50.5622 108.26C50.6107 108.325 50.728 108.323 50.913 108.252C51.0981 108.182 51.3172 108.072 51.5648 107.927C51.8123 107.781 52.1582 107.57 52.6015 107.293C53.2656 106.881 53.8267 106.546 54.2767 106.297C54.7267 106.047 55.1396 105.87 55.5152 105.764C55.8909 105.658 56.147 105.701 56.2882 105.89C56.4599 106.119 56.3601 106.49 55.9932 107C55.6684 107.451 55.1682 107.968 54.4942 108.548C54.3438 108.677 54.3168 108.9 54.4356 109.059C54.5587 109.223 54.5253 109.456 54.361 109.579L53.2198 110.434C53.0588 110.555 52.8304 110.522 52.7098 110.361C52.5923 110.204 52.3721 110.169 52.2098 110.278C51.7721 110.574 51.3348 110.852 50.8943 111.114C50.7393 111.206 50.5877 111.293 50.4396 111.377C50.069 111.585 49.6618 111.225 49.804 110.824C49.8455 110.707 49.9311 110.611 50.042 110.555C50.5403 110.303 51.057 110.016 51.5896 109.697C52.1841 109.342 52.6669 109.024 53.0389 108.745C53.3348 108.524 53.5552 108.332 53.6958 108.174C53.8408 108.013 53.8881 107.898 53.8396 107.834C53.7922 107.771 53.6815 107.772 53.502 107.841C53.3225 107.909 53.1134 108.013 52.8782 108.148C52.6441 108.284 52.2961 108.492 51.8397 108.77C51.1645 109.186 50.5979 109.522 50.1423 109.774C49.6867 110.025 49.2673 110.203 48.883 110.307C48.4986 110.41 48.2348 110.366 48.0916 110.175C47.9138 109.928 48.0252 109.535 48.4359 108.99Z" fill="#F1BA0D"/>
<ellipse cx="65.4529" cy="67.22" fill="#F1BA0D" rx="13.5541" ry="4.81676" transform="rotate(-48.3599 65.4529 67.22)"/>
<rect fill="#F1BA0D" height="1.95108" transform="rotate(-48.3599 54.9966 76.0552)" width="27.1082" x="54.9966" y="76.0552"/>
<ellipse cx="63.9998" cy="65.927" fill="#FEDC7D" rx="13.5541" ry="4.81676" transform="rotate(-48.3599 63.9998 65.927)"/>
<path d="M59.8332 67.5491C60.0848 67.0026 60.4849 66.3654 61.0304 65.6448C61.1551 65.4801 61.1328 65.2461 60.9763 65.1113C60.8146 64.9722 60.7964 64.7284 60.9356 64.5667L61.8401 63.5162C61.9804 63.3532 62.2263 63.3348 62.3893 63.4752C62.5469 63.6108 62.783 63.5986 62.9279 63.4496C63.3746 62.9905 63.8217 62.5629 64.2683 62.1662C64.4676 61.9888 64.6619 61.8224 64.851 61.6672C65.1876 61.3908 65.6589 61.6778 65.595 62.1086C65.5744 62.2478 65.4956 62.3713 65.3803 62.452C64.9336 62.7651 64.453 63.1524 63.9342 63.6153C63.3453 64.1431 62.8499 64.6404 62.4553 65.0987C62.1666 65.4341 61.955 65.7175 61.8305 65.9429C61.7047 66.1671 61.6779 66.3141 61.7525 66.3783C61.8137 66.431 61.9278 66.4035 62.0933 66.2948C62.2588 66.186 62.4493 66.0322 62.6596 65.8363C62.8699 65.6405 63.1623 65.3601 63.5355 64.9941C64.0953 64.4488 64.5712 64.0012 64.957 63.6608C65.3428 63.3204 65.7077 63.0581 66.0517 62.874C66.3958 62.6898 66.6552 62.6766 66.8336 62.8303C67.0507 63.0171 67.0331 63.4011 66.7846 63.9779C66.5646 64.4885 66.1875 65.1014 65.654 65.8119C65.535 65.9705 65.5568 66.1948 65.707 66.3242C65.8626 66.4581 65.8801 66.6927 65.7462 66.8483L64.8158 67.9289C64.6845 68.0814 64.4545 68.0986 64.302 67.9673C64.1536 67.8395 63.9309 67.8521 63.7959 67.994C63.4321 68.3768 63.065 68.7429 62.6912 69.0932C62.5596 69.2163 62.4304 69.3345 62.3037 69.4478C61.9867 69.7313 61.5115 69.4671 61.5641 69.0451C61.5794 68.9219 61.6424 68.8097 61.7385 68.731C62.1708 68.3772 62.6136 67.9857 63.0651 67.5601C63.5692 67.0851 63.9722 66.6708 64.2755 66.3185C64.5167 66.0384 64.6907 65.8039 64.794 65.6194C64.9009 65.4306 64.9224 65.3087 64.8611 65.2559C64.8012 65.2044 64.6935 65.2298 64.5329 65.3355C64.3724 65.4412 64.1906 65.5877 63.9899 65.7696C63.7905 65.9527 63.4955 66.2308 63.1097 66.6008C62.5399 67.1522 62.059 67.603 61.6683 67.9464C61.2775 68.2899 60.9062 68.5542 60.5532 68.738C60.2002 68.9218 59.9331 68.9358 59.752 68.7799C59.5253 68.5773 59.5495 68.1695 59.8332 67.5491Z" fill="#F1BA0D"/>
<ellipse cx="63.7864" cy="41.6687" fill="#003E5B" rx="27.5489" ry="3.86569" transform="rotate(-5.99645 63.7864 41.6687)"/>
<rect fill="#003E5B" height="12.5747" transform="rotate(-6.13846 35.0527 32.127)" width="55.0899" x="35.0527" y="32.127"/>
<path d="M89.852 26.3079C90.0751 28.4312 77.7309 31.6896 62.6907 33.2694C47.6505 34.8493 35.2773 34.4087 35.0542 32.2855C34.8312 30.1622 46.8429 27.1602 61.883 25.5804C76.9232 24.0005 89.629 24.1846 89.852 26.3079Z" fill="#266083"/>
<path d="M51.3066 30.0669L72.987 27.8989" stroke="#102442" stroke-linecap="round" stroke-width="3"/>
<path d="M59.4364 29.5252C66.022 29.5252 71.3607 24.1865 71.3607 17.601C71.3607 11.0154 66.022 5.67676 59.4364 5.67676C52.8509 5.67676 47.5122 11.0154 47.5122 17.601C47.5122 24.1865 52.8509 29.5252 59.4364 29.5252Z" fill="#F1BA0D"/>
<path d="M60.5204 28.4412C67.106 28.4412 72.4446 23.1026 72.4446 16.517C72.4446 9.93143 67.106 4.59277 60.5204 4.59277C53.9348 4.59277 48.5962 9.93143 48.5962 16.517C48.5962 23.1026 53.9348 28.4412 60.5204 28.4412Z" fill="#FEDC7D"/>
<path d="M64.1418 20.4616C63.6424 20.9183 63.0056 21.2339 62.2374 21.4023C61.9941 21.4557 61.81 21.6641 61.81 21.9132L61.81 23.1445C61.81 23.4206 61.5861 23.6445 61.31 23.6445H60.366C60.0899 23.6445 59.866 23.4206 59.866 23.1445L59.866 21.8935C59.866 21.6464 59.6851 21.438 59.4431 21.3882C58.9002 21.2763 58.3764 21.111 57.8717 20.8947C57.3634 20.6786 56.9029 20.418 56.4925 20.1153C56.3072 19.9786 56.2566 19.7273 56.359 19.5209L56.932 18.3667C57.0783 18.072 57.4649 17.9968 57.7338 18.1863C58.13 18.4657 58.57 18.706 59.0552 18.9105C59.7603 19.2026 60.3898 19.3486 60.9337 19.3486C61.3316 19.3486 61.6488 19.2781 61.8755 19.127C62.1021 18.981 62.2179 18.7644 62.2179 18.4824C62.2179 18.2507 62.1323 18.0543 61.9611 17.8982C61.7899 17.7421 61.5733 17.6162 61.3165 17.5255C61.0596 17.4348 60.697 17.3241 60.2286 17.1981C59.5286 17.0017 58.9444 16.8053 58.4861 16.6039C58.0278 16.4024 57.635 16.1003 57.3076 15.6974C56.9803 15.2945 56.8191 14.7556 56.8191 14.0807C56.8191 13.2598 57.0911 12.58 57.63 12.0411C58.0863 11.5848 58.6907 11.2657 59.44 11.0899C59.6802 11.0336 59.861 10.8266 59.861 10.5799L59.861 9.42871C59.861 9.15257 60.0849 8.92871 60.361 8.92871H61.305C61.5811 8.92871 61.805 9.15257 61.805 9.42871L61.805 10.5352C61.805 10.7881 61.9942 10.9996 62.2436 11.0424C62.6752 11.1165 63.099 11.2231 63.5173 11.3662C63.9181 11.5047 64.29 11.6669 64.631 11.8529C64.8512 11.973 64.928 12.2459 64.821 12.4728L64.2352 13.7147C64.1094 13.9813 63.782 14.0807 63.5192 13.9473C63.1162 13.7426 62.6936 13.5678 62.2532 13.421C61.6337 13.2145 61.115 13.1138 60.697 13.1138C60.3646 13.1138 60.1027 13.1742 59.9164 13.2951C59.725 13.416 59.6293 13.5973 59.6293 13.8289C59.6293 14.0556 59.7099 14.2419 59.8761 14.393C60.0423 14.5441 60.2488 14.6649 60.4905 14.7606C60.7323 14.8513 61.0949 14.9721 61.5733 15.1182C62.2834 15.3247 62.8726 15.5261 63.336 15.7326C63.7993 15.9391 64.1972 16.2513 64.5296 16.6744C64.8619 17.0974 65.0281 17.6514 65.0281 18.3363C65.0231 19.2076 64.731 19.9177 64.1418 20.4616Z" fill="#E8A90E"/>
<path d="M52.9552 9.44384C54.3274 8.12243 56.7559 7.81272 56.7559 7.81272C55.6719 8.35685 54.0459 9.98288 54.0459 9.98288C54.0459 9.98288 53.707 10.305 53.5039 10.5249C52.3462 11.7777 51.8482 13.2646 51.3358 14.3169C51.3358 14.3169 51.583 10.7652 52.9552 9.44384Z" fill="white"/>
<ellipse cx="75.2974" cy="100.403" fill="#F1BA0D" rx="13.5541" ry="4.81676" transform="rotate(-15.9576 75.2974 100.403)"/>
<rect fill="#F1BA0D" height="1.95108" transform="rotate(-15.9576 61.7349 102.259)" width="27.1082" x="61.7349" y="102.259"/>
<ellipse cx="74.7633" cy="98.5322" fill="#FEDC7D" rx="13.5541" ry="4.81676" transform="rotate(-15.9576 74.7633 98.5322)"/>
<path d="M70.3766 97.6687C70.8818 97.3421 71.5611 97.0185 72.4078 96.7025C72.6014 96.6302 72.7079 96.4207 72.648 96.223C72.5861 96.0189 72.7014 95.8033 72.9055 95.7414L74.232 95.3391C74.4379 95.2767 74.6554 95.393 74.7178 95.5988C74.7781 95.7977 74.984 95.9139 75.1862 95.8658C75.8094 95.7176 76.416 95.5962 77.0056 95.5005C77.269 95.4575 77.5222 95.4212 77.765 95.3914C78.1973 95.3384 78.4415 95.8333 78.1567 96.1628C78.0646 96.2693 77.9319 96.3313 77.7914 96.3377C77.2465 96.3627 76.6331 96.4321 75.947 96.545C75.1671 96.675 74.4823 96.8294 73.9035 97.005C73.4801 97.1334 73.1495 97.2593 72.9236 97.3829C72.6972 97.5048 72.5959 97.6145 72.6244 97.7086C72.6479 97.786 72.7589 97.8239 72.9569 97.8208C73.155 97.8177 73.3982 97.7898 73.6807 97.7372C73.9632 97.6845 74.3604 97.6045 74.8716 97.4954C75.6365 97.335 76.2781 97.2121 76.7862 97.1314C77.2943 97.0508 77.743 97.0249 78.1322 97.0537C78.5213 97.0826 78.7474 97.2105 78.8157 97.4358C78.8988 97.7099 78.6783 98.0247 78.1593 98.3785C77.6999 98.6917 77.0532 99.0071 76.222 99.3212C76.0366 99.3913 75.9347 99.5924 75.9923 99.7821C76.0518 99.9785 75.9409 100.186 75.7445 100.246L74.3799 100.659C74.1874 100.718 73.9839 100.609 73.9255 100.416C73.8687 100.229 73.6739 100.12 73.4839 100.168C72.9716 100.296 72.4655 100.408 71.9622 100.504C71.7851 100.537 71.6127 100.568 71.445 100.596C71.0255 100.665 70.7658 100.187 71.0363 99.8594C71.1153 99.7635 71.2286 99.7025 71.3519 99.6876C71.9065 99.6206 72.4901 99.5272 73.0994 99.4099C73.7795 99.2789 74.3418 99.1451 74.7867 99.0102C75.1404 98.9029 75.413 98.7982 75.5991 98.6977C75.7905 98.5956 75.874 98.5042 75.8505 98.4269C75.8276 98.3512 75.7229 98.315 75.5308 98.3182C75.3386 98.3214 75.1066 98.3477 74.8397 98.3937C74.5732 98.4415 74.1751 98.5182 73.6511 98.6238C72.8745 98.784 72.227 98.9069 71.713 98.9875C71.199 99.0681 70.744 99.0923 70.3474 99.0583C69.9508 99.0244 69.7179 98.893 69.6485 98.6644C69.5657 98.3718 69.8046 98.0405 70.3766 97.6687Z" fill="#F1BA0D"/>
</g>
<defs>
<clipPath id="clip0_2258_15541">
<rect fill="white" height="136" rx="5" width="136"/>
</clipPath>
</defs>
</svg>
