<?xml version="1.0" encoding="UTF-8" standalone="no"?>
<svg xmlns="http://www.w3.org/2000/svg" fill="none" height="136" viewBox="0 0 136 136" width="136">
<g clip-path="url(#clip0_2258_15540)">
<g clip-path="url(#clip1_2258_15540)">
<path d="M42.463 37.6984C36.8416 39.3078 32.7026 38.3273 28.8197 37.6984C25.2425 37.119 16.3953 34.9183 11.9151 32.6084C11.3336 32.3086 10.5998 32.5003 10.3034 33.0835C2.93055 47.5869 5.93046 64.4787 9.21057 71.7588C9.36251 72.0961 9.67603 72.3219 10.0371 72.402C11.5911 72.7467 14.5066 73.673 17.2239 75.4335C21.1069 77.9492 52.8175 105.622 65.1134 110.653C73.9829 114.282 78.6081 111.367 80.2227 108.914C80.5091 108.479 81.0083 108.203 81.5272 108.247C86.3849 108.661 88.9908 105.668 89.9991 103.435C90.2382 102.906 90.7918 102.558 91.3697 102.619C98.0964 103.331 99.9713 98.8105 100.121 95.3421C100.155 94.5407 100.905 93.8958 101.699 94.014C106.503 94.7299 109.703 92.5452 109.12 88.0119C108.473 82.9806 87.1167 65.9998 79.3508 62.2262C73.1381 59.2074 76.3308 47.7611 76.7622 43.9876C63.013 32.0146 53.6097 34.5069 42.463 37.6984Z" fill="#A25425"/>
<mask height="81" id="mask0_2258_15540" maskUnits="userSpaceOnUse" style="mask-type:alpha" width="105" x="5" y="32">
<path d="M42.463 37.6984C36.6386 38.3273 32.7026 38.3273 28.8197 37.6984C25.2425 37.119 16.3953 34.9183 11.9151 32.6084C11.3336 32.3086 10.5998 32.5003 10.3034 33.0835C2.93055 47.5869 5.93046 64.4787 9.21057 71.7588C9.36251 72.0961 9.67603 72.3219 10.0371 72.402C11.5911 72.7467 14.5066 73.673 17.2239 75.4335C21.1069 77.9492 52.8175 105.622 65.1134 110.653C73.9829 114.282 78.6081 111.367 80.2227 108.914C80.5091 108.479 81.0083 108.203 81.5272 108.247C86.3849 108.661 88.9908 105.668 89.9991 103.435C90.2382 102.906 90.7918 102.558 91.3697 102.619C98.0964 103.331 99.9713 98.8105 100.121 95.3421C100.155 94.5407 100.905 93.8958 101.699 94.014C106.503 94.7299 109.703 92.5452 109.12 88.0119C108.473 82.9806 87.1167 65.9998 79.3508 62.2262C73.1381 59.2074 76.3308 47.7611 76.7622 43.9876C67.0549 32.667 53.61 36.4947 42.463 37.6984Z" fill="#E3A26A"/>
</mask>
<g mask="url(#mask0_2258_15540)">
<path d="M4.28076 60.9683C4.97731 63.2153 8.81085 63.2743 10.1052 63.4839C11.3995 63.6936 16.059 63.9871 19.1653 65.9996C20.1954 66.667 24.1605 68.9255 28.2255 72.2415C39.4834 81.425 54.138 99.362 63.1719 103.059C69.0614 104.831 72.9955 101.283 74.4428 98.7415C74.6674 98.3472 75.0712 98.0782 75.5244 98.0561C79.2826 97.873 83.2854 96.3508 84.6826 94.5285C85.0231 94.0844 85.5424 93.7294 86.1019 93.7403C90.1166 93.8183 93.0934 91.3257 93.963 89.38C94.2586 88.7185 94.8819 88.016 95.6011 87.9279C101.119 87.252 103.704 82.6006 101.31 77.9491C102.097 79.0311 109.253 87.2708 109.342 87.9645C109.989 92.9959 106.402 95.8104 100.707 94.301C101.138 97.8649 99.8009 104.615 90.9996 103.106C90.3524 105.412 87.5049 109.772 81.2922 108.766C80.2136 111.282 74.9501 115.307 65.1134 111.282C56.0794 107.585 36.2476 91.535 24.9897 82.3515C20.9247 79.0355 18.254 76.7297 17.2239 76.0623C14.1175 74.0498 9.458 73.1274 8.16369 72.9177C6.978 70.4691 5.20462 65.4289 4.28076 60.9683Z" fill="#A25425" fill-opacity="0.5" style="mix-blend-mode:multiply"/>
<path d="M74.214 48.9901L85.1751 65.371C85.1751 65.371 72.232 60.9686 66.4076 64.7421C60.5832 68.5156 58.6655 71.7633 50.8758 72.2891C43.0862 72.815 41.8157 67.8867 43.11 65.371C44.4043 62.8553 58.9856 57.4819 58.9856 57.4819L74.214 48.9901Z" fill="#A25425" fill-opacity="0.5" style="mix-blend-mode:multiply"/>
</g>
<path d="M29.5199 96.2662C27.8629 94.0017 28.9834 90.9633 31.3136 89.3529L38.2523 84.5577C40.5826 82.9474 44.6889 82.6027 46.3459 84.8673L46.8275 85.5255C48.4846 87.79 47.0649 91.8062 44.7347 93.4165L37.7959 98.2117C35.4657 99.8221 31.6586 99.1889 30.0015 96.9244L29.5199 96.2662Z" fill="#E6A975"/>
<path d="M37.2858 104.364C35.4623 101.872 36.4673 98.0383 39.0316 96.2662L48.9122 89.438C51.4764 87.6658 56.1712 87.4391 57.9947 89.9312C59.8182 92.4232 58.0799 96.6902 55.5156 98.4623L45.6351 105.291C43.0708 107.063 39.1093 106.856 37.2858 104.364Z" fill="#E6A975"/>
<path d="M46.3459 109.395C44.5224 106.903 45.8361 103.156 48.4004 101.384L54.0058 97.5098C56.57 95.7377 60.7013 95.5826 62.5248 98.0746C64.3483 100.567 63.1735 104.762 60.6092 106.534L55.0038 110.408C52.4396 112.18 48.1694 111.887 46.3459 109.395Z" fill="#E6A975"/>
<path d="M23.0484 88.6408C21.2249 86.1488 22.5385 83.0303 25.1028 81.2582L25.6112 80.9068C28.1755 79.1347 32.8736 78.7661 34.6971 81.2581C36.5206 83.7502 36.6143 86.8687 34.05 88.6408L31.7062 90.2825C29.142 92.0547 24.8719 91.1328 23.0484 88.6408Z" fill="#E6A975"/>
<path d="M102.649 43.9873C108.853 43.5235 118.504 37.3268 123.523 33.2405C124.116 32.758 125.017 32.9667 125.316 33.6701C134.539 55.3749 129.193 69.297 125.006 74.3915C124.787 74.6583 124.453 74.7911 124.108 74.7822C120.329 74.6846 113.885 75.6054 113.003 77.3201C111.709 79.8358 109.87 83.6663 107.929 85.5531L106.438 83.6927C93.7877 71.0597 86.9488 66.9059 71.5853 58.4525C67.7414 57.9188 61.2308 60.3392 56.7007 63.4838C52.1706 66.6284 48.9349 67.8863 44.4048 67.2574C41.4431 66.8462 37.4103 62.461 39.2045 57.8693C39.5562 56.9691 40.2921 56.2914 41.1148 55.7841C45.4505 53.1108 53.3714 48.7198 58.6423 45.8741C64.4667 42.7295 72.927 38.6839 79.3513 37.6981C91.6472 35.8114 97.2558 42.5198 102.649 43.9873Z" fill="#E6A975"/>
<mask height="33" id="mask1_2258_15540" maskUnits="userSpaceOnUse" style="mask-type:alpha" width="42" x="22" y="79">
<path d="M29.5199 96.2662C27.8629 94.0017 28.9834 90.9633 31.3136 89.3529L38.2523 84.5577C40.5826 82.9474 44.6889 82.6027 46.3459 84.8673L46.8276 85.5255C48.4846 87.79 47.0649 91.8062 44.7347 93.4165L37.796 98.2117C35.4657 99.8221 31.6586 99.1889 30.0016 96.9244L29.5199 96.2662Z" fill="#963415"/>
<path d="M37.2858 104.364C35.4623 101.872 36.4673 98.0383 39.0316 96.2662L48.9122 89.438C51.4764 87.6658 56.1712 87.4391 57.9947 89.9312C59.8182 92.4232 58.0799 96.6902 55.5156 98.4623L45.6351 105.291C43.0708 107.063 39.1093 106.856 37.2858 104.364Z" fill="#963415"/>
<path d="M46.3459 109.395C44.5224 106.903 45.8361 103.156 48.4004 101.384L54.0058 97.5098C56.57 95.7377 60.7013 95.5826 62.5248 98.0746C64.3483 100.567 63.1735 104.762 60.6092 106.534L55.0038 110.408C52.4396 112.18 48.1694 111.887 46.3459 109.395Z" fill="#963415"/>
<path d="M23.0484 88.6408C21.2249 86.1488 22.5385 83.0303 25.1028 81.2582L25.6112 80.9068C28.1755 79.1347 32.8736 78.7661 34.6971 81.2581C36.5206 83.7502 36.6143 86.8687 34.05 88.6408L31.7062 90.2825C29.142 92.0547 24.8719 91.1328 23.0484 88.6408Z" fill="#963415"/>
</mask>
<g mask="url(#mask1_2258_15540)">
<path d="M51.9001 107.613C55.3194 108.942 61.3033 104.843 63.8678 102.628L57.0291 113.428H42.4969L27.1098 96.8129L21.126 86.0132C23.1776 88.6716 29.3894 89.3362 32.2388 89.3362C31.6689 90.4438 30.4953 93.457 32.2389 95.1514C34.8034 97.6437 38.5076 96.536 40.7872 95.9822C40.5023 96.8129 40.4453 98.9729 42.4969 100.967C44.5485 102.96 47.341 102.905 48.4807 102.628C48.1958 103.736 48.4807 106.283 51.9001 107.613Z" fill="#E6A975" fill-opacity="0.6" style="mix-blend-mode:multiply"/>
</g>
<mask height="54" id="mask2_2258_15540" maskUnits="userSpaceOnUse" style="mask-type:alpha" width="93" x="38" y="32">
<path d="M102.694 43.7515C108.898 43.2877 118.549 37.0909 123.569 33.0046C124.162 32.5222 125.062 32.7308 125.361 33.4342C134.584 55.139 129.239 69.0612 125.051 74.1557C124.832 74.4225 124.499 74.5553 124.153 74.5464C120.374 74.4487 113.931 75.3696 113.049 77.0842C111.754 79.5999 109.916 83.4305 107.974 85.3172L106.483 83.4569C93.8331 70.8238 86.9942 66.6701 71.6307 58.2166C67.7868 57.683 61.2762 60.1034 56.7461 63.248C52.216 66.3926 48.9803 67.6504 44.4502 67.0215C41.4885 66.6104 37.4558 62.2252 39.2499 57.6335C39.6016 56.7332 40.3375 56.0556 41.1602 55.5483C45.4959 52.875 53.4168 48.484 58.6877 45.6382C64.5121 42.4936 72.9724 38.4481 79.3967 37.4623C91.6926 35.5755 97.3012 42.284 102.694 43.7515Z" fill="#963415"/>
</mask>
<g mask="url(#mask2_2258_15540)">
<path d="M100.753 68.9081C91.3644 71.7156 78.9655 64.925 74.2197 61.3611L106.577 97.8385L114.991 80.2287L132.464 76.4552L133.758 49.4116C128.796 51.7177 116.714 55.2861 114.991 58.2165C112.402 62.6189 109.166 66.3925 100.753 68.9081Z" fill="#E6A975" fill-opacity="0.6" style="mix-blend-mode:multiply"/>
<path d="M81.8651 40.9167C77.6699 40.9167 73.3167 41.7474 69.943 43.4756C66.5692 45.2037 66.3383 46.702 67.3329 47.5627C68.5761 48.6385 74.0995 46.0356 77.7088 46.6202C81.5917 47.2491 82.2029 47.4619 87.0221 49.5019C93.6839 52.3219 98.5228 47.694 96.4763 45.3623C94.9414 43.6136 87.7255 40.9167 81.8651 40.9167Z" fill="#E6A975" fill-opacity="0.5" style="mix-blend-mode:screen"/>
</g>
<path clip-rule="evenodd" d="M55.8663 7.53404C56.7283 7.32239 57.5986 7.8496 57.8103 8.71161L61.9629 25.6243C62.1745 26.4863 61.6473 27.3566 60.7853 27.5683C59.9233 27.7799 59.053 27.2527 58.8413 26.3907L54.6887 9.47807C54.477 8.61606 55.0042 7.74569 55.8663 7.53404ZM42.9096 16.6279C43.631 16.1107 44.635 16.2762 45.1522 16.9976L50.9405 25.071C51.4577 25.7924 51.2921 26.7964 50.5708 27.3136C49.8494 27.8308 48.8454 27.6653 48.3282 26.9439L42.5399 18.8705C42.0227 18.1491 42.1882 17.1451 42.9096 16.6279Z" fill="#8AB0C7" fill-rule="evenodd"/>
<path clip-rule="evenodd" d="M75.6695 7.53404C74.8075 7.32239 73.9371 7.8496 73.7255 8.71161L69.5729 25.6243C69.3612 26.4863 69.8884 27.3566 70.7504 27.5683C71.6125 27.7799 72.4828 27.2527 72.6945 26.3907L76.8471 9.47807C77.0587 8.61606 76.5315 7.74569 75.6695 7.53404ZM88.6262 16.6279C87.9048 16.1107 86.9008 16.2762 86.3836 16.9976L80.5953 25.071C80.0781 25.7924 80.2436 26.7964 80.965 27.3136C81.6864 27.8308 82.6904 27.6653 83.2076 26.9439L88.9959 18.8705C89.5131 18.1491 89.3475 17.1451 88.6262 16.6279Z" fill="#8AB0C7" fill-rule="evenodd"/>
</g>
</g>
<defs>
<clipPath id="clip0_2258_15540">
<rect fill="white" height="136" rx="5" width="136"/>
</clipPath>
<clipPath id="clip1_2258_15540">
<rect fill="white" height="136" rx="5" width="136"/>
</clipPath>
</defs>
</svg>
