<?xml version="1.0" encoding="UTF-8" standalone="no"?>
<svg xmlns="http://www.w3.org/2000/svg" fill="none" height="136" viewBox="0 0 136 136" width="136">
<g clip-path="url(#clip0_2258_15539)">
<g clip-path="url(#clip1_2258_15539)">
<path d="M92.2819 124.633C90.6628 124.633 89.11 123.989 87.9651 122.844C86.8202 121.7 86.177 120.147 86.177 118.528V107.772L77.694 99.3441C73.9672 95.6419 79.2165 90.3586 82.9432 94.0552L77.5675 88.7134C73.8407 85.0112 79.0899 79.728 82.8167 83.4245L80.4216 81.0445C76.6948 77.3423 81.944 72.0572 85.6727 75.7557L88.5891 78.674C85.0116 75.1191 89.7055 70.1098 93.3831 72.9903H93.4341L116.365 95.7665C117.507 96.9 118.414 98.2484 119.032 99.7338C119.651 101.219 119.969 102.812 119.969 104.421V130.522H92.2819V124.633Z" fill="#BC9275"/>
<path d="M92.2819 124.633H107.325L107.979 121.799L111.482 105.383C111.682 104.453 111.666 103.49 111.437 102.567C111.208 101.644 110.771 100.785 110.16 100.056L88.6061 78.6874L85.6727 75.7729C81.944 72.0688 76.6948 77.3539 80.4216 81.0618L82.8167 83.4418C79.0899 79.7395 73.8407 85.0228 77.5675 88.7307L82.9432 94.0668C79.2165 90.3645 73.9672 95.6478 77.694 99.3557L86.177 107.784V118.528C86.177 120.147 86.8202 121.7 87.9651 122.845C89.11 123.99 90.6628 124.633 92.2819 124.633Z" fill="#9B745A"/>
<path d="M43.5863 124.632C45.2054 124.632 46.7582 123.989 47.9031 122.844C49.048 121.699 49.6912 120.147 49.6912 118.528V107.772L58.1779 99.344C61.9047 95.6418 56.6555 90.3586 52.9287 94.0551L58.3045 88.7133C62.0313 85.0111 56.782 79.7279 53.0553 83.4245L55.4504 81.0445C59.1771 77.3422 53.9279 72.0571 50.2011 75.7556L47.279 78.6569C50.8679 75.102 46.1646 70.0927 42.485 72.9732H42.434L19.5048 95.7664C18.3621 96.8996 17.4551 98.2478 16.8363 99.7332C16.2174 101.219 15.8988 102.812 15.8989 104.421V130.522H43.5881L43.5863 124.632Z" fill="#BC9275"/>
<path d="M49.6908 118.528V107.772L58.1776 99.3441C61.9044 95.6418 56.6551 90.3586 52.9284 94.0552L58.3041 88.7134C62.0309 85.0112 56.7817 79.728 53.0549 83.4245L55.45 81.0445C59.1768 77.3423 53.9276 72.0572 50.2008 75.7556L47.2655 78.6702L25.7132 100.056C25.102 100.785 24.6651 101.643 24.436 102.567C24.2069 103.49 24.1915 104.453 24.391 105.383L27.8949 121.799L28.5503 124.633H43.5916C45.2097 124.631 46.7611 123.987 47.9047 122.842C49.0484 121.698 49.6908 120.146 49.6908 118.528Z" fill="#9B745A"/>
<path d="M101.292 21.1025H35.0465C33.6768 21.1025 32.5664 22.2129 32.5664 23.5826V116.76C32.5664 118.129 33.6768 119.24 35.0465 119.24H101.292C102.661 119.24 103.772 118.129 103.772 116.76V23.5826C103.772 22.2129 102.661 21.1025 101.292 21.1025Z" fill="#013D5B"/>
<path d="M97.6953 27.1772H38.6411V105.232H97.6953V27.1772Z" fill="white"/>
<path d="M72.0591 112.164C72.0591 112.934 71.8309 113.686 71.4033 114.326C70.9757 114.966 70.368 115.464 69.657 115.759C68.946 116.053 68.1636 116.131 67.4088 115.98C66.654 115.83 65.9607 115.46 65.4165 114.915C64.8724 114.371 64.5018 113.678 64.3516 112.923C64.2015 112.168 64.2785 111.386 64.5731 110.675C64.8676 109.964 65.3663 109.356 66.0062 108.929C66.6461 108.501 67.3984 108.273 68.168 108.273C69.2 108.273 70.1897 108.683 70.9194 109.413C71.6491 110.142 72.0591 111.132 72.0591 112.164Z" fill="#598AAA"/>
<path d="M92.6008 92.8408C92.693 92.6864 92.8178 92.5539 92.9664 92.4526C93.1151 92.3513 93.284 92.2836 93.4615 92.2543C93.639 92.225 93.8207 92.2348 93.9941 92.2829C94.1674 92.331 94.3281 92.4163 94.4651 92.5329L108.632 104.975C108.795 105.117 108.952 105.265 109.102 105.417C109.148 105.464 109.2 105.506 109.255 105.542C109.843 105.916 110.335 106.423 110.692 107.022C111.049 107.62 111.262 108.294 111.312 108.989L112.277 121.996C112.277 121.996 110.133 128.131 108.524 128.131C106.557 128.132 104.637 127.535 103.017 126.419C101.397 125.303 100.155 123.721 99.4552 121.883C98.7553 120.045 98.6308 118.038 99.098 116.127C99.5653 114.217 100.602 112.493 102.072 111.186L94.433 104.361C94.3936 104.329 94.3564 104.294 94.3216 104.257C89.7712 99.3367 91.3957 94.8827 92.6008 92.8408Z" fill="#BC9275"/>
<path d="M43.2669 92.8408C43.1747 92.6864 43.0499 92.5539 42.9012 92.4526C42.7526 92.3513 42.5836 92.2836 42.4062 92.2543C42.2287 92.225 42.0469 92.2348 41.8736 92.2829C41.7003 92.331 41.5395 92.4163 41.4026 92.5329L27.2359 104.975C27.0697 105.117 26.9148 105.264 26.7656 105.417C26.7187 105.464 26.6668 105.506 26.6107 105.542C26.0232 105.916 25.5314 106.423 25.1746 107.022C24.8178 107.62 24.6058 108.294 24.5556 108.989L23.5903 121.996C23.5903 121.996 25.7342 128.131 27.3436 128.131C29.3102 128.131 31.2306 127.534 32.85 126.418C34.4693 125.302 35.7112 123.72 36.4109 121.882C37.1105 120.044 37.235 118.037 36.7676 116.127C36.3003 114.216 35.2633 112.493 33.7941 111.186L41.4328 104.371C41.4765 104.339 41.5176 104.305 41.5555 104.267C46.0889 99.3367 44.4739 94.8827 43.2669 92.8408Z" fill="#BC9275"/>
<path d="M86.288 67.8242H50.2858C49.4241 67.8242 48.7256 68.5228 48.7256 69.3844V92.3458C48.7256 93.2075 49.4241 93.906 50.2858 93.906H86.288C87.1497 93.906 87.8483 93.2075 87.8483 92.3458V69.3844C87.8483 68.5228 87.1497 67.8242 86.288 67.8242Z" fill="#013D5B"/>
<path d="M52.5034 89.2558V89.643C52.5034 89.9111 52.7208 90.1284 52.9889 90.1284H66.2111C66.4792 90.1284 66.6965 89.9111 66.6965 89.643V89.2558C66.6965 88.9877 66.4792 88.7703 66.2111 88.7703H52.9889C52.7208 88.7703 52.5034 88.9877 52.5034 89.2558Z" fill="#255F82"/>
<path d="M67.9888 89.2558V89.643C67.9888 89.9111 68.2061 90.1284 68.4742 90.1284H83.5853C83.8534 90.1284 84.0708 89.9111 84.0708 89.643V89.2558C84.0708 88.9877 83.8534 88.7703 83.5853 88.7703H68.4742C68.2061 88.7703 67.9888 88.9877 67.9888 89.2558Z" fill="#255F82"/>
<path d="M55.1572 77.2859V79.8492H52.4958V78.3815C52.4958 78.0894 52.6118 77.8093 52.8183 77.6028C53.0248 77.3963 53.3049 77.2803 53.597 77.2803H55.1516L55.1572 77.2859Z" fill="#FFF1D0"/>
<path d="M52.5113 80.3271H55.1558V82.8676H53.6012C53.3092 82.8676 53.0291 82.7516 52.8225 82.5451C52.616 82.3386 52.5 82.0585 52.5 81.7664V80.3252L52.5113 80.3271Z" fill="#FFF1D0"/>
<path d="M57.6924 82.8672V80.304H60.3557V81.7679C60.3557 82.06 60.2397 82.3401 60.0332 82.5466C59.8267 82.7531 59.5466 82.8691 59.2545 82.8691H57.6924V82.8672Z" fill="#FFF1D0"/>
<path d="M60.3462 79.8262H57.6904V77.2857H59.245C59.537 77.2857 59.8171 77.4017 60.0236 77.6082C60.2302 77.8147 60.3462 78.0948 60.3462 78.3869V79.8281V79.8262Z" fill="#FFF1D0"/>
<path d="M57.2012 79.8469V77.2837H55.6693V79.8469H57.2012Z" fill="#FFF1D0"/>
<path d="M57.1919 82.8786V80.3154H55.66V82.8786H57.1919Z" fill="#FFF1D0"/>
<path d="M68.3267 73.4268C75.3683 73.4268 81.0767 67.7184 81.0767 60.6768C81.0767 53.6351 75.3683 47.9268 68.3267 47.9268C61.285 47.9268 55.5767 53.6351 55.5767 60.6768C55.5767 67.7184 61.285 73.4268 68.3267 73.4268Z" fill="#59A545"/>
<path d="M66.1431 66.8858C65.9572 66.8862 65.773 66.8498 65.6012 66.7788C65.4294 66.7078 65.2734 66.6036 65.142 66.4721L60.9543 62.2825C60.6961 62.0155 60.5531 61.6577 60.5562 61.2862C60.5593 60.9148 60.7081 60.5594 60.9706 60.2966C61.2331 60.0338 61.5884 59.8847 61.9598 59.8813C62.3313 59.8779 62.6892 60.0205 62.9565 60.2784L66.1431 63.4669L73.455 56.155C73.722 55.8968 74.0798 55.7538 74.4513 55.7569C74.8227 55.7599 75.1781 55.9088 75.4409 56.1713C75.7037 56.4338 75.8528 56.7891 75.8562 57.1605C75.8596 57.532 75.717 57.8899 75.4591 58.1572L67.148 66.4683C67.0162 66.6006 66.8596 66.7056 66.6871 66.7772C66.5147 66.8489 66.3298 66.8857 66.1431 66.8858Z" fill="white"/>
<path d="M80.917 31.6147C82.6398 31.3419 83.8152 29.7241 83.5423 28.0013C83.2695 26.2786 81.6517 25.1032 79.9289 25.3761C78.2061 25.6489 77.0308 27.2667 77.3036 28.9895C77.5765 30.7122 79.1943 31.8876 80.917 31.6147Z" fill="#FEDC7D"/>
<path d="M118.583 40.4751C120.902 40.4751 122.782 38.5952 122.782 36.2761C122.782 33.9571 120.902 32.0771 118.583 32.0771C116.264 32.0771 114.384 33.9571 114.384 36.2761C114.384 38.5952 116.264 40.4751 118.583 40.4751Z" fill="#FEDC7D"/>
<path d="M123.94 41.6729C125.828 43.575 129.459 45.1824 131.236 45.8001C129.744 47.6002 130.596 48.0667 130.292 49.389C127.434 48.148 121.981 45.5111 123.039 44.9047C124.096 44.2984 123.571 43.2557 123.94 41.6729Z" fill="#78D0EB"/>
<path d="M44.9216 48.1212C42.4811 48.5405 39.3399 50.4389 37.9327 51.4589C37.366 49.3811 36.5595 49.774 35.7095 48.839C38.165 47.3279 43.0516 44.6041 42.9515 45.7242C42.8514 46.8443 43.9224 47.0067 44.9216 48.1212Z" fill="#78D0EB"/>
<path d="M130.668 14.1664C127.515 15.2355 123.743 18.4164 122.085 20.0654C120.887 17.421 119.909 18.118 118.583 17.0545C121.527 14.5404 127.441 9.88809 127.542 11.3973C127.642 12.9065 129.106 12.899 130.668 14.1664Z" fill="#9FDBEF"/>
<path d="M23.7036 11.3445C19.5348 11.6901 13.9777 14.4234 11.4485 15.9288C10.793 12.3399 9.38581 12.8952 8.0957 11.1934C12.4401 9.02491 21.0686 5.14891 20.7324 7.02268C20.3961 8.89646 22.183 9.32146 23.7036 11.3445Z" fill="#9FDBEF"/>
<path d="M87.1626 35.4053C90.8875 37.2111 97.0075 37.6927 99.922 37.6833C98.6678 41.0719 100.147 41.3081 100.389 43.4085C95.5851 43.0609 86.2862 42.0107 87.5158 40.5865C88.7455 39.1623 87.4346 37.8948 87.1626 35.4053Z" fill="#9FDBEF"/>
<path d="M17.1641 34.661L21.8485 38.1082L26.1212 33.3085L20.9928 29.5308L17.1641 34.661Z" fill="#B3CDDE"/>
<path d="M66.7855 30.6565L59.4717 29.9878L57.9512 37.9967L65.9657 38.7522L66.7855 30.6565Z" fill="#007F9B"/>
<path d="M52.2843 24.9615C50.5314 21.1668 45.5089 16.2953 42.7549 13.9266C46.255 12.2266 49.6531 8.82664 50.9867 7.23242C54.9533 11.0291 62.3445 18.6545 60.1459 18.7811C57.9472 18.9076 53.9881 22.9536 52.2843 24.9615Z" fill="#00A3C4"/>
<path d="M86.3071 14.2706C87.8787 11.7753 88.8307 6.93222 89.1745 4.39355C91.5224 5.814 94.8411 6.51289 96.2975 6.69044C95.5759 10.4966 93.9042 17.7971 92.9844 16.5448C92.0645 15.2924 88.1507 14.5067 86.3071 14.2706Z" fill="#00A3C4"/>
<path d="M8.58987 42.4932C10.3126 42.2203 11.488 40.6025 11.2152 38.8798C10.9423 37.157 9.32453 35.9816 7.60176 36.2545C5.879 36.5273 4.70362 38.1451 4.97648 39.8679C5.24934 41.5906 6.86711 42.766 8.58987 42.4932Z" fill="#FEDC7D"/>
</g>
</g>
<defs>
<clipPath id="clip0_2258_15539">
<rect fill="white" height="136" rx="5" width="136"/>
</clipPath>
<clipPath id="clip1_2258_15539">
<rect fill="white" height="136" width="136"/>
</clipPath>
</defs>
</svg>
